<mxfile host="app.diagrams.net" modified="2023-08-25T16:59:04.115Z" agent="Mozilla/5.0 (X11; Linux x86_64; rv:103.0) Gecko/20100101 Firefox/103.0" etag="7VTZeuTzwMIqdT1yHanh" version="21.6.9" type="github">
  <diagram id="R2lEEEUBdFMjLlhIrx00" name="Page-1">
    <mxGraphModel dx="2284" dy="644" grid="1" gridSize="10" guides="1" tooltips="1" connect="1" arrows="1" fold="1" page="1" pageScale="1" pageWidth="850" pageHeight="1100" math="0" shadow="0" extFonts="Permanent Marker^https://fonts.googleapis.com/css?family=Permanent+Marker">
      <root>
        <mxCell id="0" />
        <mxCell id="1" parent="0" />
        <mxCell id="HVYfLiIrZfnUgEDj0098-3" value="1" style="edgeStyle=orthogonalEdgeStyle;rounded=0;orthogonalLoop=1;jettySize=auto;html=1;" edge="1" parent="1" source="HVYfLiIrZfnUgEDj0098-1" target="HVYfLiIrZfnUgEDj0098-2">
          <mxGeometry y="20" relative="1" as="geometry">
            <mxPoint as="offset" />
          </mxGeometry>
        </mxCell>
        <mxCell id="HVYfLiIrZfnUgEDj0098-1" value="DEPARTAMENTO" style="rounded=1;whiteSpace=wrap;html=1;" vertex="1" parent="1">
          <mxGeometry x="-40" y="60" width="120" height="60" as="geometry" />
        </mxCell>
        <mxCell id="HVYfLiIrZfnUgEDj0098-10" value="" style="edgeStyle=orthogonalEdgeStyle;rounded=0;orthogonalLoop=1;jettySize=auto;html=1;" edge="1" parent="1" source="HVYfLiIrZfnUgEDj0098-2" target="HVYfLiIrZfnUgEDj0098-4">
          <mxGeometry relative="1" as="geometry" />
        </mxCell>
        <mxCell id="HVYfLiIrZfnUgEDj0098-2" value="CONTROLE" style="rhombus;whiteSpace=wrap;html=1;rounded=1;" vertex="1" parent="1">
          <mxGeometry x="180" y="50" width="80" height="80" as="geometry" />
        </mxCell>
        <mxCell id="HVYfLiIrZfnUgEDj0098-4" value="FUNCIONARIO" style="whiteSpace=wrap;html=1;rounded=1;" vertex="1" parent="1">
          <mxGeometry x="320" y="60" width="120" height="60" as="geometry" />
        </mxCell>
        <mxCell id="HVYfLiIrZfnUgEDj0098-12" value="1" style="text;html=1;strokeColor=none;fillColor=none;align=center;verticalAlign=middle;whiteSpace=wrap;rounded=0;" vertex="1" parent="1">
          <mxGeometry x="260" y="60" width="60" height="30" as="geometry" />
        </mxCell>
        <mxCell id="HVYfLiIrZfnUgEDj0098-40" value="" style="endArrow=none;html=1;rounded=0;dashed=1;dashPattern=1 2;exitX=1;exitY=0.5;exitDx=0;exitDy=0;entryX=1;entryY=0.5;entryDx=0;entryDy=0;" edge="1" parent="1" source="HVYfLiIrZfnUgEDj0098-4" target="HVYfLiIrZfnUgEDj0098-43">
          <mxGeometry relative="1" as="geometry">
            <mxPoint x="350" y="310" as="sourcePoint" />
            <mxPoint x="510" y="200" as="targetPoint" />
            <Array as="points">
              <mxPoint x="520" y="90" />
              <mxPoint x="520" y="190" />
            </Array>
          </mxGeometry>
        </mxCell>
        <mxCell id="HVYfLiIrZfnUgEDj0098-41" value="1" style="resizable=0;html=1;whiteSpace=wrap;align=right;verticalAlign=bottom;" connectable="0" vertex="1" parent="HVYfLiIrZfnUgEDj0098-40">
          <mxGeometry x="1" relative="1" as="geometry" />
        </mxCell>
        <mxCell id="HVYfLiIrZfnUgEDj0098-46" value="" style="edgeStyle=orthogonalEdgeStyle;rounded=0;orthogonalLoop=1;jettySize=auto;html=1;" edge="1" parent="1" source="HVYfLiIrZfnUgEDj0098-43" target="HVYfLiIrZfnUgEDj0098-45">
          <mxGeometry relative="1" as="geometry" />
        </mxCell>
        <mxCell id="HVYfLiIrZfnUgEDj0098-43" value="TEM" style="rhombus;whiteSpace=wrap;html=1;rounded=1;" vertex="1" parent="1">
          <mxGeometry x="400" y="150" width="80" height="80" as="geometry" />
        </mxCell>
        <mxCell id="HVYfLiIrZfnUgEDj0098-49" value="" style="edgeStyle=orthogonalEdgeStyle;rounded=0;orthogonalLoop=1;jettySize=auto;html=1;" edge="1" parent="1" source="HVYfLiIrZfnUgEDj0098-45" target="HVYfLiIrZfnUgEDj0098-48">
          <mxGeometry relative="1" as="geometry" />
        </mxCell>
        <mxCell id="HVYfLiIrZfnUgEDj0098-45" value="PROJETO" style="whiteSpace=wrap;html=1;rounded=1;" vertex="1" parent="1">
          <mxGeometry x="230" y="160" width="120" height="60" as="geometry" />
        </mxCell>
        <mxCell id="HVYfLiIrZfnUgEDj0098-51" value="" style="edgeStyle=orthogonalEdgeStyle;rounded=0;orthogonalLoop=1;jettySize=auto;html=1;" edge="1" parent="1" source="HVYfLiIrZfnUgEDj0098-48" target="HVYfLiIrZfnUgEDj0098-50">
          <mxGeometry relative="1" as="geometry" />
        </mxCell>
        <mxCell id="HVYfLiIrZfnUgEDj0098-48" value="TEM" style="rhombus;whiteSpace=wrap;html=1;rounded=1;" vertex="1" parent="1">
          <mxGeometry x="100" y="150" width="80" height="80" as="geometry" />
        </mxCell>
        <mxCell id="HVYfLiIrZfnUgEDj0098-53" value="" style="edgeStyle=orthogonalEdgeStyle;rounded=0;orthogonalLoop=1;jettySize=auto;html=1;" edge="1" parent="1" source="HVYfLiIrZfnUgEDj0098-50" target="HVYfLiIrZfnUgEDj0098-52">
          <mxGeometry relative="1" as="geometry" />
        </mxCell>
        <mxCell id="HVYfLiIrZfnUgEDj0098-50" value="FORN" style="whiteSpace=wrap;html=1;rounded=1;" vertex="1" parent="1">
          <mxGeometry x="-70" y="160" width="120" height="60" as="geometry" />
        </mxCell>
        <mxCell id="HVYfLiIrZfnUgEDj0098-55" value="" style="edgeStyle=orthogonalEdgeStyle;rounded=0;orthogonalLoop=1;jettySize=auto;html=1;" edge="1" parent="1" source="HVYfLiIrZfnUgEDj0098-52" target="HVYfLiIrZfnUgEDj0098-54">
          <mxGeometry relative="1" as="geometry" />
        </mxCell>
        <mxCell id="HVYfLiIrZfnUgEDj0098-52" value="ATENDE" style="rhombus;whiteSpace=wrap;html=1;rounded=1;" vertex="1" parent="1">
          <mxGeometry x="-20" y="280" width="80" height="80" as="geometry" />
        </mxCell>
        <mxCell id="HVYfLiIrZfnUgEDj0098-57" value="" style="edgeStyle=orthogonalEdgeStyle;rounded=0;orthogonalLoop=1;jettySize=auto;html=1;" edge="1" parent="1" source="HVYfLiIrZfnUgEDj0098-54" target="HVYfLiIrZfnUgEDj0098-56">
          <mxGeometry relative="1" as="geometry" />
        </mxCell>
        <mxCell id="HVYfLiIrZfnUgEDj0098-60" value="" style="edgeStyle=orthogonalEdgeStyle;rounded=0;orthogonalLoop=1;jettySize=auto;html=1;" edge="1" parent="1" source="HVYfLiIrZfnUgEDj0098-54" target="HVYfLiIrZfnUgEDj0098-59">
          <mxGeometry relative="1" as="geometry" />
        </mxCell>
        <mxCell id="HVYfLiIrZfnUgEDj0098-54" value="PEÃ‡A" style="whiteSpace=wrap;html=1;rounded=1;" vertex="1" parent="1">
          <mxGeometry x="120" y="270" width="120" height="60" as="geometry" />
        </mxCell>
        <mxCell id="HVYfLiIrZfnUgEDj0098-58" value="" style="edgeStyle=orthogonalEdgeStyle;rounded=0;orthogonalLoop=1;jettySize=auto;html=1;" edge="1" parent="1" source="HVYfLiIrZfnUgEDj0098-56" target="HVYfLiIrZfnUgEDj0098-45">
          <mxGeometry relative="1" as="geometry" />
        </mxCell>
        <mxCell id="HVYfLiIrZfnUgEDj0098-56" value="UTILIZA" style="rhombus;whiteSpace=wrap;html=1;rounded=1;" vertex="1" parent="1">
          <mxGeometry x="320" y="260" width="80" height="80" as="geometry" />
        </mxCell>
        <mxCell id="HVYfLiIrZfnUgEDj0098-62" value="" style="edgeStyle=orthogonalEdgeStyle;rounded=0;orthogonalLoop=1;jettySize=auto;html=1;" edge="1" parent="1" source="HVYfLiIrZfnUgEDj0098-59" target="HVYfLiIrZfnUgEDj0098-61">
          <mxGeometry relative="1" as="geometry" />
        </mxCell>
        <mxCell id="HVYfLiIrZfnUgEDj0098-59" value="CONTEM" style="rhombus;whiteSpace=wrap;html=1;rounded=1;" vertex="1" parent="1">
          <mxGeometry x="120" y="400" width="80" height="80" as="geometry" />
        </mxCell>
        <mxCell id="HVYfLiIrZfnUgEDj0098-61" value="DEPOSITO" style="whiteSpace=wrap;html=1;rounded=1;" vertex="1" parent="1">
          <mxGeometry x="260" y="410" width="120" height="60" as="geometry" />
        </mxCell>
        <mxCell id="HVYfLiIrZfnUgEDj0098-64" value="1...N" style="text;html=1;strokeColor=none;fillColor=none;align=center;verticalAlign=middle;whiteSpace=wrap;rounded=0;" vertex="1" parent="1">
          <mxGeometry x="350" y="160" width="60" height="30" as="geometry" />
        </mxCell>
        <mxCell id="HVYfLiIrZfnUgEDj0098-65" value="1...N" style="text;html=1;strokeColor=none;fillColor=none;align=center;verticalAlign=middle;whiteSpace=wrap;rounded=0;" vertex="1" parent="1">
          <mxGeometry x="170" y="160" width="60" height="30" as="geometry" />
        </mxCell>
        <mxCell id="HVYfLiIrZfnUgEDj0098-66" value="1...N" style="text;html=1;strokeColor=none;fillColor=none;align=center;verticalAlign=middle;whiteSpace=wrap;rounded=0;" vertex="1" parent="1">
          <mxGeometry x="50" y="160" width="60" height="30" as="geometry" />
        </mxCell>
        <mxCell id="HVYfLiIrZfnUgEDj0098-67" value="1" style="text;html=1;strokeColor=none;fillColor=none;align=center;verticalAlign=middle;whiteSpace=wrap;rounded=0;" vertex="1" parent="1">
          <mxGeometry x="-50" y="230" width="60" height="30" as="geometry" />
        </mxCell>
        <mxCell id="HVYfLiIrZfnUgEDj0098-68" value="1...N" style="text;html=1;strokeColor=none;fillColor=none;align=center;verticalAlign=middle;whiteSpace=wrap;rounded=0;" vertex="1" parent="1">
          <mxGeometry x="-20" y="220" width="60" height="30" as="geometry" />
        </mxCell>
        <mxCell id="HVYfLiIrZfnUgEDj0098-69" value="1...N" style="text;html=1;strokeColor=none;fillColor=none;align=center;verticalAlign=middle;whiteSpace=wrap;rounded=0;" vertex="1" parent="1">
          <mxGeometry x="60" y="270" width="60" height="30" as="geometry" />
        </mxCell>
        <mxCell id="HVYfLiIrZfnUgEDj0098-71" value="1...N" style="text;html=1;strokeColor=none;fillColor=none;align=center;verticalAlign=middle;whiteSpace=wrap;rounded=0;" vertex="1" parent="1">
          <mxGeometry x="240" y="270" width="60" height="30" as="geometry" />
        </mxCell>
        <mxCell id="HVYfLiIrZfnUgEDj0098-72" value="1...N" style="text;html=1;strokeColor=none;fillColor=none;align=center;verticalAlign=middle;whiteSpace=wrap;rounded=0;" vertex="1" parent="1">
          <mxGeometry x="170" y="370" width="60" height="30" as="geometry" />
        </mxCell>
      </root>
    </mxGraphModel>
  </diagram>
</mxfile>
